<?xml version="1.0" encoding="UTF-8"?>
<!DOCTYPE svg PUBLIC "-//W3C//DTD SVG 1.1//EN" "http://www.w3.org/Graphics/SVG/1.1/DTD/svg11.dtd">
<svg xmlns="http://www.w3.org/2000/svg" version="1.1" width="285px" height="296px" style="shape-rendering:geometricPrecision; text-rendering:geometricPrecision; image-rendering:optimizeQuality; fill-rule:evenodd; clip-rule:evenodd" xmlns:xlink="http://www.w3.org/1999/xlink">
<g><path style="opacity:0.454" fill="#fd5152" d="M 155.5,17.5 C 153.208,18.6861 150.874,18.6861 148.5,17.5C 148.5,16.8333 148.167,16.5 147.5,16.5C 134.756,16.0739 122.089,16.7405 109.5,18.5C 108.833,18.5 108.167,18.5 107.5,18.5C 109.277,17.3995 111.277,16.5662 113.5,16C 128.875,13.9291 144.208,14.2625 159.5,17C 158.207,17.49 156.873,17.6567 155.5,17.5 Z"/></g>
<g><path style="opacity:0.984" fill="#fe5555" d="M 155.5,18.5 C 180.847,22.1755 203.18,32.3421 222.5,49C 224.246,49.4709 225.913,50.1376 227.5,51C 230.703,54.3709 234.036,57.5375 237.5,60.5C 235.761,64.3288 234.261,68.3288 233,72.5C 232.502,76.6505 232.836,80.6505 234,84.5C 230.117,80.7184 228.45,76.0518 229,70.5C 226.394,67.0171 222.894,65.3505 218.5,65.5C 215.824,65.837 213.157,66.1703 210.5,66.5C 212.747,75.907 218.747,80.7403 228.5,81C 233.731,85.0625 238.064,89.8959 241.5,95.5C 240.998,96.521 240.332,96.6877 239.5,96C 232.043,85.2224 222.376,82.3891 210.5,87.5C 210.709,88.086 211.043,88.586 211.5,89C 222.581,89.2039 230.914,94.0372 236.5,103.5C 235.926,106.177 235.259,108.843 234.5,111.5C 231.533,109.996 228.533,109.662 225.5,110.5C 229.603,116.973 232.436,123.973 234,131.5C 243.313,139.011 245.646,148.011 241,158.5C 240.746,165.513 240.746,172.513 241,179.5C 240.667,180.167 240.333,180.833 240,181.5C 239.938,177.611 238.771,174.111 236.5,171C 231.776,167.919 226.776,166.419 221.5,166.5C 223.631,174.981 228.965,178.648 237.5,177.5C 238.21,183.081 236.044,187.081 231,189.5C 228.565,192.934 226.565,196.6 225,200.5C 222.037,202.461 219.371,204.794 217,207.5C 214.685,203.362 211.852,199.695 208.5,196.5C 205.738,194.275 202.738,192.275 199.5,190.5C 199.167,190.833 198.833,191.167 198.5,191.5C 200.82,197.372 201.153,203.372 199.5,209.5C 193.878,210.814 188.212,211.814 182.5,212.5C 184.854,215.403 186.688,218.736 188,222.5C 189.873,224.709 192.04,226.542 194.5,228C 193.944,228.383 193.611,228.883 193.5,229.5C 192.258,230.043 190.925,230.377 189.5,230.5C 176.972,227.728 164.305,226.894 151.5,228C 143.945,231.277 136.278,234.277 128.5,237C 124.835,238.497 121.502,240.497 118.5,243C 115.518,243.498 112.518,243.665 109.5,243.5C 109.167,243.5 108.833,243.5 108.5,243.5C 105.863,241.509 103.196,239.509 100.5,237.5C 95.2465,235.872 90.2465,233.705 85.5,231C 83.6667,228.5 81.8333,226 80,223.5C 79.5065,221.866 79.3398,220.199 79.5,218.5C 78.1779,218.33 77.0113,218.663 76,219.5C 73.9653,222.561 72.7986,225.895 72.5,229.5C 71.1779,229.67 70.0113,229.337 69,228.5C 68.6359,219.482 64.1359,214.315 55.5,213C 54.1955,213.804 53.5288,214.971 53.5,216.5C 55.6401,223.643 60.3068,227.976 67.5,229.5C 65.9968,230.557 64.3302,231.224 62.5,231.5C 59.8546,230.892 57.1879,230.392 54.5,230C 52.8859,220.511 47.2193,216.345 37.5,217.5C 35.1667,215.833 33.1667,213.833 31.5,211.5C 26.8309,202.823 22.6642,193.823 19,184.5C 17.8438,183.007 17.0104,183.174 16.5,185C 19.0693,189.94 20.5693,195.107 21,200.5C 10.4262,178.632 6.42621,155.632 9,131.5C 9.33333,134.167 9.66667,136.833 10,139.5C 11.408,123.052 14.0746,107.052 18,91.5C 34.1551,56.1645 60.6551,32.8312 97.5,21.5C 96.1498,22.6499 96.3164,23.3166 98,23.5C 100.03,23.0463 101.863,22.3796 103.5,21.5C 146.825,12.7435 184.491,23.4102 216.5,53.5C 217.521,52.9984 217.688,52.3317 217,51.5C 199.666,34.5831 179.166,23.5831 155.5,18.5 Z M 27.5,85.5 C 27.3605,87.337 26.6939,87.6704 25.5,86.5C 25.9569,85.7025 26.6236,85.3691 27.5,85.5 Z M 24.5,90.5 C 24.5386,91.7562 24.0386,92.7562 23,93.5C 22.4153,92.0024 22.9153,91.0024 24.5,90.5 Z"/></g>
<g><path style="opacity:0.732" fill="#ac3b44" d="M 107.5,18.5 C 108.167,18.5 108.833,18.5 109.5,18.5C 107.5,19.5 105.5,20.5 103.5,21.5C 101.863,22.3796 100.03,23.0463 98,23.5C 96.3164,23.3166 96.1498,22.6499 97.5,21.5C 100.55,19.8993 103.884,18.8993 107.5,18.5 Z"/></g>
<g><path style="opacity:1" fill="#2a1e31" d="M 147.5,16.5 C 148.167,16.5 148.5,16.8333 148.5,17.5C 150.874,18.6861 153.208,18.6861 155.5,17.5C 155.5,17.8333 155.5,18.1667 155.5,18.5C 179.166,23.5831 199.666,34.5831 217,51.5C 217.688,52.3317 217.521,52.9984 216.5,53.5C 184.491,23.4102 146.825,12.7435 103.5,21.5C 105.5,20.5 107.5,19.5 109.5,18.5C 122.089,16.7405 134.756,16.0739 147.5,16.5 Z"/></g>
<g><path style="opacity:1" fill="#f6aa47" d="M 142.5,118.5 C 142.736,121.609 142.403,124.609 141.5,127.5C 138.531,130.642 135.698,133.975 133,137.5C 132.503,139.81 132.337,142.143 132.5,144.5C 132.167,144.5 131.833,144.5 131.5,144.5C 131.665,141.482 131.498,138.482 131,135.5C 128.913,132.93 127.08,130.263 125.5,127.5C 124.698,124.426 123.698,121.426 122.5,118.5C 122.334,113.489 122.501,108.489 123,103.5C 126.267,93.8645 129.434,84.1978 132.5,74.5C 136.813,81.9368 139.646,89.9368 141,98.5C 142.274,105.103 142.774,111.77 142.5,118.5 Z"/></g>
<g><path style="opacity:0.912" fill="#f65252" d="M 242.5,68.5 C 250.778,78.7296 256.112,90.3963 258.5,103.5C 256.552,106.464 254.552,109.464 252.5,112.5C 252.8,108.566 252.8,104.566 252.5,100.5C 251.394,104.135 250.394,107.802 249.5,111.5C 246.138,105.457 245.805,99.2906 248.5,93C 248.167,92.5 247.833,92 247.5,91.5C 246.167,92.5 244.833,93.5 243.5,94.5C 243.167,93.5 242.833,92.5 242.5,91.5C 244.088,87.9759 244.588,84.3092 244,80.5C 242.915,83.8787 241.582,87.2121 240,90.5C 238.16,88.152 236.993,85.4853 236.5,82.5C 239.582,78.3314 241.582,73.6648 242.5,68.5 Z"/></g>
<g><path style="opacity:1" fill="#ebe5e1" d="M 122.5,118.5 C 123.698,121.426 124.698,124.426 125.5,127.5C 124.666,128.748 123.333,129.415 121.5,129.5C 107.426,130.481 93.7591,133.315 80.5,138C 97.2503,142.052 114.25,144.219 131.5,144.5C 131.833,144.5 132.167,144.5 132.5,144.5C 150.344,144.263 168.01,142.43 185.5,139C 181.167,136.667 176.833,134.333 172.5,132C 161.823,130.878 151.49,129.378 141.5,127.5C 142.403,124.609 142.736,121.609 142.5,118.5C 161.374,118.076 179.708,120.909 197.5,127C 199.286,127.785 200.786,128.951 202,130.5C 201.099,147.919 199.099,165.252 196,182.5C 192.571,190.929 186.404,196.096 177.5,198C 147.809,203.74 118.143,203.74 88.5,198C 79.1532,195.638 72.6532,190.138 69,181.5C 66.493,164.576 65.1597,147.576 65,130.5C 67.8922,127.943 71.0589,125.776 74.5,124C 90.2061,119.729 106.206,117.896 122.5,118.5 Z"/></g>
<g><path style="opacity:1" fill="#f7e2c8" d="M 141.5,127.5 C 151.49,129.378 161.823,130.878 172.5,132C 176.833,134.333 181.167,136.667 185.5,139C 168.01,142.43 150.344,144.263 132.5,144.5C 132.337,142.143 132.503,139.81 133,137.5C 135.698,133.975 138.531,130.642 141.5,127.5 Z"/></g>
<g><path style="opacity:1" fill="#f6e1c7" d="M 125.5,127.5 C 127.08,130.263 128.913,132.93 131,135.5C 131.498,138.482 131.665,141.482 131.5,144.5C 114.25,144.219 97.2503,142.052 80.5,138C 93.7591,133.315 107.426,130.481 121.5,129.5C 123.333,129.415 124.666,128.748 125.5,127.5 Z"/></g>
<g><path style="opacity:1" fill="#5b2a20" d="M 147.5,137.5 C 151.854,136.033 156.188,136.366 160.5,138.5C 160.333,138.833 160.167,139.167 160,139.5C 155.991,138.046 151.825,137.379 147.5,137.5 Z"/></g>
<g><path style="opacity:1" fill="#e6b49c" d="M 277.5,134.5 C 279.332,135.14 279.665,136.14 278.5,137.5C 271.492,134.334 265.158,135.334 259.5,140.5C 257.399,142.109 255.065,142.609 252.5,142C 256.783,139.385 260.783,136.385 264.5,133C 269.026,132.151 273.36,132.651 277.5,134.5 Z"/></g>
<g><path style="opacity:1" fill="#f8e2c8" d="M 77.5,139.5 C 114.43,147.08 151.43,147.413 188.5,140.5C 188.695,151.2 188.195,161.867 187,172.5C 185.833,179 182,182.833 175.5,184C 146.592,189.085 117.592,189.752 88.5,186C 82.6405,184.141 78.8072,180.307 77,174.5C 76.1894,162.757 76.3561,151.091 77.5,139.5 Z"/></g>
<g><path style="opacity:0.61" fill="#0c1624" d="M 279.5,132.5 C 282.41,135.873 282.91,139.54 281,143.5C 280,142.5 279,141.5 278,140.5C 274.236,145.056 270.736,149.723 267.5,154.5C 267.167,153.833 266.833,153.167 266.5,152.5C 268.14,149.851 269.807,147.184 271.5,144.5C 271.167,144.167 270.833,143.833 270.5,143.5C 266.81,144.84 263.143,146.174 259.5,147.5C 259.5,147.167 259.5,146.833 259.5,146.5C 259.328,145.508 259.662,144.842 260.5,144.5C 263.167,144.167 263.167,143.833 260.5,143.5C 260.5,142.833 260.167,142.5 259.5,142.5C 259.5,141.833 259.5,141.167 259.5,140.5C 265.158,135.334 271.492,134.334 278.5,137.5C 279.665,136.14 279.332,135.14 277.5,134.5C 278.167,133.833 278.833,133.167 279.5,132.5 Z"/></g>
<g><path style="opacity:1" fill="#ec4d50" d="M 259.5,142.5 C 260.167,142.5 260.5,142.833 260.5,143.5C 260.5,143.833 260.5,144.167 260.5,144.5C 259.662,144.842 259.328,145.508 259.5,146.5C 251.707,150.696 246.207,157.03 243,165.5C 242.833,164.333 242.667,163.167 242.5,162C 243.863,157.572 245.03,153.072 246,148.5C 250.1,145.582 254.6,143.582 259.5,142.5 Z"/></g>
<g><path style="opacity:1" fill="#724335" d="M 129.5,159.5 C 128.087,155.525 125.421,152.691 121.5,151C 111.859,149.797 102.192,148.797 92.5,148C 88.4574,147.887 84.7907,146.721 81.5,144.5C 81.6667,144.167 81.8333,143.833 82,143.5C 83.9449,144.863 86.1116,145.697 88.5,146C 98.8224,147.088 109.156,148.088 119.5,149C 125.77,149.769 129.104,153.269 129.5,159.5 Z"/></g>
<g><path style="opacity:1" fill="#622f21" d="M 182.5,147.5 C 183.002,145.915 184.002,145.415 185.5,146C 184.756,147.039 183.756,147.539 182.5,147.5 Z"/></g>
<g><path style="opacity:0.998" fill="#913913" d="M 266.5,152.5 C 263.973,154.605 261.64,156.939 259.5,159.5C 256.726,160.723 254.059,162.223 251.5,164C 249.5,164.667 247.5,164.667 245.5,164C 248.935,157.402 253.602,151.902 259.5,147.5C 263.143,146.174 266.81,144.84 270.5,143.5C 270.833,143.833 271.167,144.167 271.5,144.5C 269.807,147.184 268.14,149.851 266.5,152.5 Z"/></g>
<g><path style="opacity:1" fill="#57251c" d="M 182.5,147.5 C 182.082,148.222 181.416,148.722 180.5,149C 167.745,149.692 155.078,151.025 142.5,153C 140.273,155.564 138.439,158.397 137,161.5C 133.482,164.496 130.982,163.829 129.5,159.5C 130.794,160.29 131.961,161.29 133,162.5C 136.047,160.082 138.38,157.082 140,153.5C 142.979,150.232 146.479,149.565 150.5,151.5C 161.014,149.092 171.681,147.758 182.5,147.5 Z"/></g>
<g><path style="opacity:0.502" fill="#32211e" d="M 266.5,152.5 C 266.833,153.167 267.167,153.833 267.5,154.5C 266.972,155.721 266.305,156.887 265.5,158C 263.266,159.75 260.932,161.25 258.5,162.5C 258.5,162.167 258.5,161.833 258.5,161.5C 258.833,160.833 259.167,160.167 259.5,159.5C 261.64,156.939 263.973,154.605 266.5,152.5 Z"/></g>
<g><path style="opacity:1" fill="#f3544d" d="M 258.5,161.5 C 258.5,161.833 258.5,162.167 258.5,162.5C 258.326,164.861 257.993,167.194 257.5,169.5C 252.199,169.099 247.699,170.766 244,174.5C 241.851,167.647 244.351,164.813 251.5,166C 253.862,164.489 256.195,162.989 258.5,161.5 Z"/></g>
<g><path style="opacity:1" fill="#222030" d="M 242.5,68.5 C 241.582,73.6648 239.582,78.3314 236.5,82.5C 236.993,85.4853 238.16,88.152 240,90.5C 241.582,87.2121 242.915,83.8787 244,80.5C 244.588,84.3092 244.088,87.9759 242.5,91.5C 242.833,92.5 243.167,93.5 243.5,94.5C 244.833,93.5 246.167,92.5 247.5,91.5C 247.833,92 248.167,92.5 248.5,93C 245.805,99.2906 246.138,105.457 249.5,111.5C 250.394,107.802 251.394,104.135 252.5,100.5C 252.8,104.566 252.8,108.566 252.5,112.5C 254.552,109.464 256.552,106.464 258.5,103.5C 260.912,103.244 262.579,104.244 263.5,106.5C 264.891,105.355 266.224,105.355 267.5,106.5C 268.407,109.421 268.74,112.421 268.5,115.5C 271.5,114.833 274.5,114.167 277.5,113.5C 277.657,114.873 277.49,116.207 277,117.5C 273.469,121.397 270.303,125.564 267.5,130C 271.795,129.984 275.795,130.817 279.5,132.5C 278.833,133.167 278.167,133.833 277.5,134.5C 273.36,132.651 269.026,132.151 264.5,133C 260.783,136.385 256.783,139.385 252.5,142C 255.065,142.609 257.399,142.109 259.5,140.5C 259.5,141.167 259.5,141.833 259.5,142.5C 254.6,143.582 250.1,145.582 246,148.5C 245.03,153.072 243.863,157.572 242.5,162C 242.667,163.167 242.833,164.333 243,165.5C 246.207,157.03 251.707,150.696 259.5,146.5C 259.5,146.833 259.5,147.167 259.5,147.5C 253.602,151.902 248.935,157.402 245.5,164C 247.5,164.667 249.5,164.667 251.5,164C 254.059,162.223 256.726,160.723 259.5,159.5C 259.167,160.167 258.833,160.833 258.5,161.5C 256.195,162.989 253.862,164.489 251.5,166C 244.351,164.813 241.851,167.647 244,174.5C 247.699,170.766 252.199,169.099 257.5,169.5C 264.273,169.973 269.106,173.307 272,179.5C 272.5,185.825 272.666,192.158 272.5,198.5C 277.277,197.908 278.777,199.575 277,203.5C 273.558,205.733 269.892,206.067 266,204.5C 265.283,205.044 264.783,205.711 264.5,206.5C 261.214,205.793 257.881,205.46 254.5,205.5C 256.292,204.691 258.292,204.191 260.5,204C 258.445,201.074 255.612,199.907 252,200.5C 250.167,200.667 248.333,200.833 246.5,201C 242.729,203.219 238.729,204.885 234.5,206C 232.923,208.564 231.923,211.397 231.5,214.5C 235.986,215.853 240.319,215.519 244.5,213.5C 245.823,214.608 247.323,214.608 249,213.5C 250.841,216.323 252.341,216.156 253.5,213C 254.437,212.308 255.103,212.475 255.5,213.5C 254.167,213.833 254.167,214.167 255.5,214.5C 256.5,215.833 257.5,217.167 258.5,218.5C 254.815,217.996 251.149,217.33 247.5,216.5C 245.933,216.477 244.6,216.977 243.5,218C 247.478,220.781 249.811,224.614 250.5,229.5C 247.615,229.806 244.948,229.473 242.5,228.5C 247.392,229.124 248.558,227.458 246,223.5C 241.429,218.865 235.929,217.032 229.5,218C 224.995,219.065 220.662,220.565 216.5,222.5C 216.167,222.5 215.833,222.5 215.5,222.5C 217.477,219.107 216.81,216.441 213.5,214.5C 214.868,213.406 216.035,213.74 217,215.5C 217.333,217.167 217.667,218.833 218,220.5C 219.518,218.386 219.851,216.053 219,213.5C 215.581,209.669 212.914,205.335 211,200.5C 209.961,199.29 208.794,198.29 207.5,197.5C 207.5,196.833 207.833,196.5 208.5,196.5C 211.852,199.695 214.685,203.362 217,207.5C 219.371,204.794 222.037,202.461 225,200.5C 226.565,196.6 228.565,192.934 231,189.5C 236.044,187.081 238.21,183.081 237.5,177.5C 228.965,178.648 223.631,174.981 221.5,166.5C 226.776,166.419 231.776,167.919 236.5,171C 238.771,174.111 239.938,177.611 240,181.5C 240.333,180.833 240.667,180.167 241,179.5C 240.746,172.513 240.746,165.513 241,158.5C 245.646,148.011 243.313,139.011 234,131.5C 232.436,123.973 229.603,116.973 225.5,110.5C 228.533,109.662 231.533,109.996 234.5,111.5C 235.259,108.843 235.926,106.177 236.5,103.5C 230.914,94.0372 222.581,89.2039 211.5,89C 211.043,88.586 210.709,88.086 210.5,87.5C 222.376,82.3891 232.043,85.2224 239.5,96C 240.332,96.6877 240.998,96.521 241.5,95.5C 238.064,89.8959 233.731,85.0625 228.5,81C 218.747,80.7403 212.747,75.907 210.5,66.5C 213.157,66.1703 215.824,65.837 218.5,65.5C 222.894,65.3505 226.394,67.0171 229,70.5C 228.45,76.0518 230.117,80.7184 234,84.5C 232.836,80.6505 232.502,76.6505 233,72.5C 234.261,68.3288 235.761,64.3288 237.5,60.5C 238.404,59.791 238.737,58.791 238.5,57.5C 239.822,57.33 240.989,57.6634 242,58.5C 242.498,61.8168 242.665,65.1501 242.5,68.5 Z M 248.5,197.5 C 249.5,194.833 250.5,192.167 251.5,189.5C 253.379,189.607 253.712,189.107 252.5,188C 253.667,185.5 255.5,183.667 258,182.5C 258.792,187.298 259.292,192.131 259.5,197C 258.737,197.944 257.737,198.444 256.5,198.5C 253.885,197.731 251.219,197.397 248.5,197.5 Z"/></g>
<g><path style="opacity:1" fill="#8d3816" d="M 243.5,139.5 C 247.377,139.231 249.544,140.898 250,144.5C 245.887,145.73 243.72,144.063 243.5,139.5 Z"/></g>
<g><path style="opacity:1" fill="#efbaa0" d="M 245.5,118.5 C 246.712,121.233 248.045,123.9 249.5,126.5C 250.833,125.833 251.833,124.833 252.5,123.5C 254.396,122.534 256.396,122.201 258.5,122.5C 257.053,127.388 254.553,131.721 251,135.5C 249.211,137.229 247.044,137.896 244.5,137.5C 244.249,131.108 244.582,124.775 245.5,118.5 Z"/></g>
<g><path style="opacity:0.996" fill="#f0bba1" d="M 267.5,117.5 C 269.199,117.34 270.866,117.506 272.5,118C 268.598,124.572 263.931,130.572 258.5,136C 255.475,137.688 252.475,139.021 249.5,140C 255.224,134.054 259.557,127.221 262.5,119.5C 264.336,118.972 266.003,118.306 267.5,117.5 Z"/></g>
<g><path style="opacity:1" fill="#f9c1a5" d="M 229.5,112.5 C 231.655,112.372 233.655,112.872 235.5,114C 238,116.5 240.5,119 243,121.5C 242.768,126.76 242.435,132.093 242,137.5C 240.374,134.872 238.374,132.539 236,130.5C 234.105,124.381 231.938,118.381 229.5,112.5 Z"/></g>
<g><path style="opacity:1" fill="#eb9389" d="M 248.5,113.5 C 252.856,114.179 256.523,116.179 259.5,119.5C 255.807,119.793 252.64,121.127 250,123.5C 247.88,120.318 247.38,116.984 248.5,113.5 Z"/></g>
<g><path style="opacity:0.995" fill="#e89187" d="M 264.5,108.5 C 266.369,110.635 267.036,113.302 266.5,116.5C 262.951,118.317 259.951,117.65 257.5,114.5C 259.878,112.448 262.211,110.448 264.5,108.5 Z"/></g>
<g><path style="opacity:1" fill="#e74d50" d="M 257.5,107.5 C 258.497,107.47 259.164,107.97 259.5,109C 258.584,111.817 256.917,112.983 254.5,112.5C 255.952,111.06 256.952,109.394 257.5,107.5 Z"/></g>
<g><path style="opacity:1" fill="#f2978c" d="M 244.5,95.5 C 244.253,100.055 244.92,104.722 246.5,109.5C 246.359,112.783 245.359,115.783 243.5,118.5C 239.104,116.88 237.104,113.713 237.5,109C 237.856,103.455 240.189,98.9546 244.5,95.5 Z"/></g>
<g><path style="opacity:1" fill="#8b3717" d="M 215.5,86.5 C 226.468,85.7183 234.301,90.0516 239,99.5C 238.333,100.167 237.667,100.833 237,101.5C 232.125,92.8053 224.625,88.3053 214.5,88C 215.056,87.6174 215.389,87.1174 215.5,86.5 Z"/></g>
<g><path style="opacity:1" fill="#8a3717" d="M 213.5,69.5 C 218.984,70.4683 223.317,73.3016 226.5,78C 220.277,78.3091 215.943,75.4757 213.5,69.5 Z"/></g>
<g><path style="opacity:1" fill="#8f3816" d="M 216.5,68.5 C 219.933,67.1241 223.266,67.6241 226.5,70C 227.576,71.7261 227.743,73.5594 227,75.5C 224.388,71.7812 220.888,69.4478 216.5,68.5 Z"/></g>
<g><path style="opacity:1" fill="#bf7037" d="M 238.5,62.5 C 241.783,68.787 240.617,74.4537 235,79.5C 234.333,76.8333 234.333,74.1667 235,71.5C 236.18,68.4788 237.346,65.4788 238.5,62.5 Z"/></g>
<g><path style="opacity:1" fill="#903915" d="M 224.5,168.5 C 229.221,169.177 233.221,171.177 236.5,174.5C 230.052,177.21 226.052,175.21 224.5,168.5 Z"/></g>
<g><path style="opacity:1" fill="#cc7737" d="M 250.5,171.5 C 257.555,170.111 263.388,172.111 268,177.5C 268.982,178.759 269.315,180.092 269,181.5C 264.243,176.759 259.243,176.426 254,180.5C 250.968,187.524 246.468,193.357 240.5,198C 236.126,198.539 231.792,198.872 227.5,199C 230.566,192.6 235.066,187.433 241,183.5C 242.537,178.035 245.703,174.035 250.5,171.5 Z"/></g>
<g><path style="opacity:1" fill="#2f1f32" d="M 12.5,149.5 C 15.1458,160.379 18.3125,171.379 22,182.5C 25.5738,190.653 29.9071,198.32 35,205.5C 35.6877,206.332 35.521,206.998 34.5,207.5C 32.5067,205.334 30.6733,203.001 29,200.5C 24.7113,192.258 20.7113,183.924 17,175.5C 14.5304,166.987 13.0304,158.321 12.5,149.5 Z"/></g>
<g><path style="opacity:0.995" fill="#8b3815" d="M 259.5,180.5 C 263.042,179.482 266.209,180.482 269,183.5C 270.239,189.056 270.906,194.722 271,200.5C 275.634,201.49 275.634,202.49 271,203.5C 267.845,202.59 265.178,200.924 263,198.5C 261.826,193.25 261.159,187.916 261,182.5C 260.722,181.584 260.222,180.918 259.5,180.5 Z"/></g>
<g><path style="opacity:0.938" fill="#d7544e" d="M 251.5,189.5 C 250.5,192.167 249.5,194.833 248.5,197.5C 247.833,197.5 247.5,197.833 247.5,198.5C 244.133,200.896 240.466,202.396 236.5,203C 242.664,198.965 247.664,194.465 251.5,189.5 Z"/></g>
<g><path style="opacity:1" fill="#f0baa1" d="M 207.5,197.5 C 208.794,198.29 209.961,199.29 211,200.5C 212.914,205.335 215.581,209.669 219,213.5C 219.851,216.053 219.518,218.386 218,220.5C 217.667,218.833 217.333,217.167 217,215.5C 216.035,213.74 214.868,213.406 213.5,214.5C 216.81,216.441 217.477,219.107 215.5,222.5C 214.503,222.53 213.836,222.03 213.5,221C 214.452,219.7 214.452,218.533 213.5,217.5C 212.194,218.912 211.36,220.579 211,222.5C 209.883,221.051 209.216,219.384 209,217.5C 208.311,218.357 207.478,219.023 206.5,219.5C 204.473,218.307 202.973,216.64 202,214.5C 202.11,208.118 201.943,201.785 201.5,195.5C 201.833,195.167 202.167,194.833 202.5,194.5C 204.36,195.26 206.027,196.26 207.5,197.5 Z"/></g>
<g><path style="opacity:1" fill="#f3978c" d="M 229.5,200.5 C 231.527,200.338 233.527,200.505 235.5,201C 231.603,204.631 229.77,209.131 230,214.5C 227.579,215.961 225.079,217.294 222.5,218.5C 221.901,215.157 220.568,212.157 218.5,209.5C 221.236,205.307 224.903,202.307 229.5,200.5 Z"/></g>
<g><path style="opacity:0.996" fill="#f4bea3" d="M 254.5,205.5 C 250.873,207.794 247.539,210.46 244.5,213.5C 240.319,215.519 235.986,215.853 231.5,214.5C 231.923,211.397 232.923,208.564 234.5,206C 238.729,204.885 242.729,203.219 246.5,201C 248.333,200.833 250.167,200.667 252,200.5C 255.612,199.907 258.445,201.074 260.5,204C 258.292,204.191 256.292,204.691 254.5,205.5 Z"/></g>
<g><path style="opacity:0.402" fill="#fe4f50" d="M 31.5,211.5 C 32.2271,213.954 33.2271,216.287 34.5,218.5C 34.5,219.5 34.5,220.5 34.5,221.5C 29.4978,214.838 25.4978,207.504 22.5,199.5C 22.8457,198.304 23.3457,198.304 24,199.5C 26.2746,203.732 28.7746,207.732 31.5,211.5 Z"/></g>
<g><path style="opacity:0.714" fill="#02142a" d="M 254.5,205.5 C 257.881,205.46 261.214,205.793 264.5,206.5C 264.53,207.497 264.03,208.164 263,208.5C 261.535,207.67 260.035,207.504 258.5,208C 259.747,209.458 259.747,210.958 258.5,212.5C 259.981,213.48 261.315,214.647 262.5,216C 261.692,217.706 260.359,218.539 258.5,218.5C 257.5,217.167 256.5,215.833 255.5,214.5C 255.5,214.167 255.5,213.833 255.5,213.5C 255.103,212.475 254.437,212.308 253.5,213C 252.341,216.156 250.841,216.323 249,213.5C 247.323,214.608 245.823,214.608 244.5,213.5C 247.539,210.46 250.873,207.794 254.5,205.5 Z"/></g>
<g><path style="opacity:0.998" fill="#f8c1a6" d="M 242.5,228.5 C 241.005,228.989 239.671,229.655 238.5,230.5C 234.146,234.157 229.146,235.324 223.5,234C 222.129,230.62 219.962,227.787 217,225.5C 216.517,224.552 216.351,223.552 216.5,222.5C 220.662,220.565 224.995,219.065 229.5,218C 235.929,217.032 241.429,218.865 246,223.5C 248.558,227.458 247.392,229.124 242.5,228.5 Z"/></g>
<g><path style="opacity:1" fill="#f8c1a5" d="M 192.5,242.5 C 190.134,238.566 190.467,234.566 193.5,230.5C 195.841,228.344 197.841,225.844 199.5,223C 202.882,222.176 206.216,222.343 209.5,223.5C 211.965,225.618 214.631,227.451 217.5,229C 211.384,237.723 203.051,242.223 192.5,242.5 Z"/></g>
<g><path style="opacity:1" fill="#ef504c" d="M 52.5,236.5 C 51.5,235.167 50.5,233.833 49.5,232.5C 52.2877,231.022 54.9543,231.188 57.5,233C 55.8043,234.176 54.1376,235.343 52.5,236.5 Z"/></g>
<g><path style="opacity:0.996" fill="#282939" d="M 208.5,196.5 C 207.833,196.5 207.5,196.833 207.5,197.5C 206.027,196.26 204.36,195.26 202.5,194.5C 202.167,194.833 201.833,195.167 201.5,195.5C 201.943,201.785 202.11,208.118 202,214.5C 202.973,216.64 204.473,218.307 206.5,219.5C 207.478,219.023 208.311,218.357 209,217.5C 209.216,219.384 209.883,221.051 211,222.5C 211.36,220.579 212.194,218.912 213.5,217.5C 214.452,218.533 214.452,219.7 213.5,221C 213.836,222.03 214.503,222.53 215.5,222.5C 215.833,222.5 216.167,222.5 216.5,222.5C 216.351,223.552 216.517,224.552 217,225.5C 219.962,227.787 222.129,230.62 223.5,234C 229.146,235.324 234.146,234.157 238.5,230.5C 241.097,230.721 241.097,231.221 238.5,232C 239.774,232.977 239.774,233.811 238.5,234.5C 238.44,233.957 238.107,233.624 237.5,233.5C 232.804,236.503 227.804,237.17 222.5,235.5C 221.09,237.949 221.424,240.116 223.5,242C 226.351,243.289 229.351,243.789 232.5,243.5C 231.1,244.1 230.1,245.1 229.5,246.5C 225.87,246.235 222.703,244.902 220,242.5C 220.115,247.306 220.782,251.972 222,256.5C 219.595,257.245 217.428,256.578 215.5,254.5C 214.286,258.379 211.953,261.379 208.5,263.5C 207.5,263.5 206.5,263.5 205.5,263.5C 207.807,262.023 209.64,260.023 211,257.5C 212.301,255.635 212.635,253.635 212,251.5C 208.682,248.866 206.349,245.533 205,241.5C 202.699,242.867 200.199,243.534 197.5,243.5C 196.081,242.549 194.415,242.216 192.5,242.5C 203.051,242.223 211.384,237.723 217.5,229C 214.631,227.451 211.965,225.618 209.5,223.5C 206.216,222.343 202.882,222.176 199.5,223C 197.841,225.844 195.841,228.344 193.5,230.5C 193.5,230.167 193.5,229.833 193.5,229.5C 193.611,228.883 193.944,228.383 194.5,228C 192.04,226.542 189.873,224.709 188,222.5C 186.688,218.736 184.854,215.403 182.5,212.5C 188.212,211.814 193.878,210.814 199.5,209.5C 201.153,203.372 200.82,197.372 198.5,191.5C 198.833,191.167 199.167,190.833 199.5,190.5C 202.738,192.275 205.738,194.275 208.5,196.5 Z"/></g>
<g><path style="opacity:0.996" fill="#ef978c" d="M 218.5,230.5 C 219.525,231.374 220.192,232.541 220.5,234C 218.94,236.727 217.607,239.56 216.5,242.5C 217.851,245.842 218.185,249.175 217.5,252.5C 212.47,250.803 209.136,247.47 207.5,242.5C 211.782,239.211 215.449,235.211 218.5,230.5 Z"/></g>
<g><path style="opacity:1" fill="#f5988d" d="M 194.5,211.5 C 196.199,211.34 197.866,211.506 199.5,212C 200.092,215.032 201.426,217.698 203.5,220C 199.5,220.328 196.5,222.161 194.5,225.5C 190.724,223.057 188.057,219.724 186.5,215.5C 189.1,214.045 191.767,212.712 194.5,211.5 Z"/></g>
<g><path style="opacity:0.908" fill="#f3bea3" d="M 238.5,234.5 C 239.931,236.189 240.764,238.189 241,240.5C 242.039,241.71 243.206,242.71 244.5,243.5C 243.081,244.451 241.415,244.784 239.5,244.5C 237.283,243.631 234.95,243.298 232.5,243.5C 229.351,243.789 226.351,243.289 223.5,242C 221.424,240.116 221.09,237.949 222.5,235.5C 227.804,237.17 232.804,236.503 237.5,233.5C 238.107,233.624 238.44,233.957 238.5,234.5 Z"/></g>
<g><path style="opacity:0.592" fill="#5c575a" d="M 242.5,228.5 C 244.948,229.473 247.615,229.806 250.5,229.5C 250.539,230.756 250.039,231.756 249,232.5C 246.619,231.565 244.119,231.232 241.5,231.5C 241.327,237.163 243.827,241.163 249,243.5C 249.749,244.635 249.583,245.635 248.5,246.5C 242.249,246.75 235.915,246.75 229.5,246.5C 230.1,245.1 231.1,244.1 232.5,243.5C 234.95,243.298 237.283,243.631 239.5,244.5C 241.628,245.629 243.961,245.796 246.5,245C 245.956,244.283 245.289,243.783 244.5,243.5C 243.206,242.71 242.039,241.71 241,240.5C 240.764,238.189 239.931,236.189 238.5,234.5C 239.774,233.811 239.774,232.977 238.5,232C 241.097,231.221 241.097,230.721 238.5,230.5C 239.671,229.655 241.005,228.989 242.5,228.5 Z"/></g>
<g><path style="opacity:1" fill="#8c333f" d="M 108.5,243.5 C 108.833,243.5 109.167,243.5 109.5,243.5C 111.631,244.314 113.964,244.814 116.5,245C 115.956,245.717 115.289,246.217 114.5,246.5C 112.735,245.539 110.735,245.205 108.5,245.5C 108.5,244.833 108.5,244.167 108.5,243.5 Z"/></g>
<g><path style="opacity:0.976" fill="#00162d" d="M 244.5,243.5 C 245.289,243.783 245.956,244.283 246.5,245C 243.961,245.796 241.628,245.629 239.5,244.5C 241.415,244.784 243.081,244.451 244.5,243.5 Z"/></g>
<g><path style="opacity:1" fill="#251f30" d="M 108.5,243.5 C 108.5,244.167 108.5,244.833 108.5,245.5C 103.006,249.317 98.0065,253.651 93.5,258.5C 93.1667,258.5 92.8333,258.5 92.5,258.5C 94.016,255.467 96.016,252.8 98.5,250.5C 98,250.167 97.5,249.833 97,249.5C 92.3607,250.879 87.8607,252.545 83.5,254.5C 82.2617,254.19 82.2617,253.69 83.5,253C 80.1667,252.667 76.8333,252.333 73.5,252C 78.3514,251.826 83.0181,251.326 87.5,250.5C 90.1794,249.774 92.846,248.941 95.5,248C 94.9109,246.127 95.5776,244.46 97.5,243C 96.3774,241.956 95.0441,241.29 93.5,241C 86.8333,240.333 80.1667,240.333 73.5,241C 69.6476,241.593 65.9809,242.76 62.5,244.5C 65.2347,246.521 67.9014,248.521 70.5,250.5C 70.8333,251.167 71.1667,251.833 71.5,252.5C 70.5,252.5 69.5,252.5 68.5,252.5C 67.3615,249.914 65.3615,248.247 62.5,247.5C 60.6159,247.288 59.2826,246.288 58.5,244.5C 59.0047,243.081 60.0047,242.415 61.5,242.5C 65.9721,240.566 70.6388,239.233 75.5,238.5C 75.3333,238.167 75.1667,237.833 75,237.5C 71.5915,236.378 68.0915,236.211 64.5,237C 62.4156,237.697 60.7489,238.864 59.5,240.5C 56.4469,242.263 53.1135,243.097 49.5,243C 49.1667,242.667 48.8333,242.333 48.5,242C 50.4641,240.549 51.7974,238.716 52.5,236.5C 54.1376,235.343 55.8043,234.176 57.5,233C 54.9543,231.188 52.2877,231.022 49.5,232.5C 45.3863,232.251 41.7197,230.751 38.5,228C 36.2663,226.362 34.933,224.195 34.5,221.5C 34.5,220.5 34.5,219.5 34.5,218.5C 35.791,218.737 36.791,218.404 37.5,217.5C 47.2193,216.345 52.8859,220.511 54.5,230C 57.1879,230.392 59.8546,230.892 62.5,231.5C 64.3302,231.224 65.9968,230.557 67.5,229.5C 60.3068,227.976 55.6401,223.643 53.5,216.5C 53.5288,214.971 54.1955,213.804 55.5,213C 64.1359,214.315 68.6359,219.482 69,228.5C 70.0113,229.337 71.1779,229.67 72.5,229.5C 72.7986,225.895 73.9653,222.561 76,219.5C 77.0113,218.663 78.1779,218.33 79.5,218.5C 79.3398,220.199 79.5065,221.866 80,223.5C 81.8333,226 83.6667,228.5 85.5,231C 90.2465,233.705 95.2465,235.872 100.5,237.5C 103.196,239.509 105.863,241.509 108.5,243.5 Z"/></g>
<g><path style="opacity:1" fill="#863618" d="M 99.5,241.5 C 102.27,240.729 104.27,241.896 105.5,245C 104.708,246.96 103.375,248.46 101.5,249.5C 100.614,248.675 100.281,247.675 100.5,246.5C 96.5,245.833 96.5,245.167 100.5,244.5C 100.737,243.209 100.404,242.209 99.5,241.5 Z"/></g>
<g><path style="opacity:1" fill="#f6998d" d="M 87.5,250.5 C 81.8333,250.5 76.1667,250.5 70.5,250.5C 67.9014,248.521 65.2347,246.521 62.5,244.5C 65.9809,242.76 69.6476,241.593 73.5,241C 80.1667,240.333 86.8333,240.333 93.5,241C 95.0441,241.29 96.3774,241.956 97.5,243C 95.5776,244.46 94.9109,246.127 95.5,248C 92.846,248.941 90.1794,249.774 87.5,250.5 Z"/></g>
<g><path style="opacity:1" fill="#ef5152" d="M 61.5,242.5 C 61.1667,241.5 60.5,240.833 59.5,240.5C 60.7489,238.864 62.4156,237.697 64.5,237C 68.0915,236.211 71.5915,236.378 75,237.5C 75.1667,237.833 75.3333,238.167 75.5,238.5C 70.6388,239.233 65.9721,240.566 61.5,242.5 Z"/></g>
<g><path style="opacity:1" fill="#bf6b3a" d="M 68.5,231.5 C 70.1667,231.5 71.8333,231.5 73.5,231.5C 73.5,232.5 73.5,233.5 73.5,234.5C 66.866,233.813 60.866,235.48 55.5,239.5C 54.7176,237.671 55.3843,236.171 57.5,235C 61.3724,234.096 65.0391,232.93 68.5,231.5 Z"/></g>
<g><path style="opacity:1" fill="#f2978c" d="M 76.5,221.5 C 78.9724,226.235 82.3058,230.402 86.5,234C 90.8186,235.373 94.8186,237.206 98.5,239.5C 98.1667,239.833 97.8333,240.167 97.5,240.5C 90.9267,239.06 84.26,238.06 77.5,237.5C 74.2456,232.274 73.9123,226.94 76.5,221.5 Z"/></g>
<g><path style="opacity:1" fill="#8c3817" d="M 42.5,220.5 C 42.9169,219.876 43.5836,219.543 44.5,219.5C 49.1386,220.294 51.3053,222.961 51,227.5C 48.5838,224.577 45.7504,222.243 42.5,220.5 Z"/></g>
<g><path style="opacity:0.996" fill="#8d3815" d="M 37.5,222.5 C 38.9464,221.387 40.6131,221.22 42.5,222C 45.1667,224.667 47.8333,227.333 50.5,230C 45.0775,229.415 40.7442,226.915 37.5,222.5 Z"/></g>
<g><path style="opacity:1" fill="#c77538" d="M 55.5,214.5 C 59.5025,214.971 62.6692,216.971 65,220.5C 66.128,222.345 66.628,224.345 66.5,226.5C 64.0637,226.683 61.897,226.016 60,224.5C 57.1355,221.772 55.6355,218.438 55.5,214.5 Z"/></g>
<g><path style="opacity:1" fill="#f25252" d="M 108.5,245.5 C 110.735,245.205 112.735,245.539 114.5,246.5C 110.072,249.891 105.406,253.058 100.5,256C 104.257,259.089 108.59,260.922 113.5,261.5C 113.121,263.213 112.121,264.213 110.5,264.5C 105.166,263.166 99.8326,261.833 94.5,260.5C 94.1667,259.833 93.8333,259.167 93.5,258.5C 98.0065,253.651 103.006,249.317 108.5,245.5 Z"/></g>
<g><path style="opacity:0.991" fill="#f7c0a5" d="M 205.5,263.5 C 200.932,264.787 196.932,267.12 193.5,270.5C 192.702,270.043 192.369,269.376 192.5,268.5C 192.152,260.363 192.986,252.363 195,244.5C 195.671,243.748 196.504,243.414 197.5,243.5C 200.199,243.534 202.699,242.867 205,241.5C 206.349,245.533 208.682,248.866 212,251.5C 212.635,253.635 212.301,255.635 211,257.5C 209.64,260.023 207.807,262.023 205.5,263.5 Z"/></g>
<g><path style="opacity:0.498" fill="#b06b69" d="M 62.5,247.5 C 65.3615,248.247 67.3615,249.914 68.5,252.5C 66.0905,251.299 64.0905,249.633 62.5,247.5 Z"/></g>
<g><path style="opacity:0.997" fill="#f3978c" d="M 92.5,258.5 C 87.874,261.954 83.374,265.621 79,269.5C 77.482,267.386 77.1487,265.053 78,262.5C 79.2433,259.424 81.0767,256.757 83.5,254.5C 87.8607,252.545 92.3607,250.879 97,249.5C 97.5,249.833 98,250.167 98.5,250.5C 96.016,252.8 94.016,255.467 92.5,258.5 Z"/></g>
<g><path style="opacity:0.914" fill="#221e2d" d="M 193.5,229.5 C 193.5,229.833 193.5,230.167 193.5,230.5C 190.467,234.566 190.134,238.566 192.5,242.5C 194.415,242.216 196.081,242.549 197.5,243.5C 196.504,243.414 195.671,243.748 195,244.5C 192.986,252.363 192.152,260.363 192.5,268.5C 191.514,264.03 191.181,259.363 191.5,254.5C 192.005,251.159 192.172,247.826 192,244.5C 190.108,245.13 188.441,246.13 187,247.5C 185.974,250.239 184.474,252.572 182.5,254.5C 182.167,254.5 181.833,254.5 181.5,254.5C 183.412,250.583 185.745,246.917 188.5,243.5C 187.635,242.417 186.635,242.251 185.5,243C 177.315,249.03 169.315,255.197 161.5,261.5C 156.688,261.692 152.355,263.192 148.5,266C 148.728,266.399 149.062,266.565 149.5,266.5C 146.313,268.35 143.147,270.35 140,272.5C 139.796,275.797 138.963,278.797 137.5,281.5C 137.167,280.833 136.833,280.167 136.5,279.5C 136.854,273.088 136.521,268.088 135.5,264.5C 134.596,263.791 134.263,262.791 134.5,261.5C 134.703,259.956 135.37,258.622 136.5,257.5C 134.926,256.369 133.259,256.202 131.5,257C 128.998,260.333 126.332,263.499 123.5,266.5C 118.433,269.849 112.766,271.182 106.5,270.5C 106.351,269.448 106.517,268.448 107,267.5C 108.518,266.837 109.685,265.837 110.5,264.5C 112.121,264.213 113.121,263.213 113.5,261.5C 108.59,260.922 104.257,259.089 100.5,256C 105.406,253.058 110.072,249.891 114.5,246.5C 115.289,246.217 115.956,245.717 116.5,245C 113.964,244.814 111.631,244.314 109.5,243.5C 112.518,243.665 115.518,243.498 118.5,243C 121.502,240.497 124.835,238.497 128.5,237C 136.278,234.277 143.945,231.277 151.5,228C 164.305,226.894 176.972,227.728 189.5,230.5C 190.925,230.377 192.258,230.043 193.5,229.5 Z"/></g>
<g><path style="opacity:0.282" fill="#b64130" d="M 161.5,261.5 C 161.973,262.906 162.973,263.573 164.5,263.5C 162.972,264.309 161.306,264.976 159.5,265.5C 156.14,265.616 152.807,265.949 149.5,266.5C 149.062,266.565 148.728,266.399 148.5,266C 152.355,263.192 156.688,261.692 161.5,261.5 Z"/></g>
<g><path style="opacity:1" fill="#8e3815" d="M 125.5,256.5 C 126.873,256.343 128.207,256.51 129.5,257C 125.494,264.001 119.494,267.335 111.5,267C 113.5,264.667 115.5,262.333 117.5,260C 120.476,259.295 123.142,258.129 125.5,256.5 Z"/></g>
<g><path style="opacity:1" fill="#f35150" d="M 134.5,261.5 C 133.715,263.374 133.048,265.374 132.5,267.5C 129.545,266.841 126.545,266.508 123.5,266.5C 126.332,263.499 128.998,260.333 131.5,257C 133.259,256.202 134.926,256.369 136.5,257.5C 135.37,258.622 134.703,259.956 134.5,261.5 Z"/></g>
<g><path style="opacity:1" fill="#eb5757" d="M 191.5,254.5 C 190.833,254.833 190.167,255.167 189.5,255.5C 187.5,256.5 185.5,257.5 183.5,258.5C 182.566,257.432 182.232,256.099 182.5,254.5C 184.474,252.572 185.974,250.239 187,247.5C 188.441,246.13 190.108,245.13 192,244.5C 192.172,247.826 192.005,251.159 191.5,254.5 Z"/></g>
<g><path style="opacity:1" fill="#c87538" d="M 142.5,243.5 C 147.599,243.175 152.599,243.675 157.5,245C 150.942,246.946 144.942,249.946 139.5,254C 131.841,253.734 124.507,255.067 117.5,258C 114.167,258.667 110.833,258.667 107.5,258C 114.48,254.367 121.48,250.7 128.5,247C 133.207,245.506 137.874,244.34 142.5,243.5 Z"/></g>
<g><path style="opacity:1" fill="#f25052" d="M 181.5,254.5 C 180.404,256.103 179.07,257.603 177.5,259C 173.145,260.514 168.812,262.014 164.5,263.5C 162.973,263.573 161.973,262.906 161.5,261.5C 169.315,255.197 177.315,249.03 185.5,243C 186.635,242.251 187.635,242.417 188.5,243.5C 185.745,246.917 183.412,250.583 181.5,254.5 Z"/></g>
<g><path style="opacity:1" fill="#923a14" d="M 181.5,237.5 C 183.833,237.5 186.167,237.5 188.5,237.5C 188.5,238.5 188.5,239.5 188.5,240.5C 185.774,240.264 183.441,241.097 181.5,243C 175.5,248 169.5,253 163.5,258C 160.431,259.846 157.098,260.846 153.5,261C 149.025,264.571 144.025,267.071 138.5,268.5C 138.335,264.818 138.501,261.152 139,257.5C 140.167,256.333 141.333,255.167 142.5,254C 155.444,248.191 168.444,242.691 181.5,237.5 Z"/></g>
<g><path style="opacity:1" fill="#cd7838" d="M 151.5,229.5 C 164.327,228.852 176.994,229.852 189.5,232.5C 189.5,233.5 189.5,234.5 189.5,235.5C 186.813,235.336 184.146,235.503 181.5,236C 175.043,238.646 168.543,241.146 162,243.5C 150.692,240.647 139.525,241.147 128.5,245C 121.547,248.957 114.38,252.457 107,255.5C 105.278,255.389 105.112,254.889 106.5,254C 112.736,250.433 118.403,246.1 123.5,241C 133.309,237.916 142.642,234.083 151.5,229.5 Z"/></g>
<g><path style="opacity:0.578" fill="#0c1728" d="M 181.5,254.5 C 181.833,254.5 182.167,254.5 182.5,254.5C 182.232,256.099 182.566,257.432 183.5,258.5C 181.894,263.477 182.227,268.311 184.5,273C 183.63,278.19 181.13,279.356 177,276.5C 176.86,272.766 177.36,269.099 178.5,265.5C 177.209,265.263 176.209,265.596 175.5,266.5C 175.953,268.391 175.286,270.225 173.5,272C 174.493,274.453 174.66,276.953 174,279.5C 171.321,282.172 168.988,281.838 167,278.5C 166.68,275.46 166.68,272.46 167,269.5C 162.164,272.821 159.664,271.488 159.5,265.5C 161.306,264.976 162.972,264.309 164.5,263.5C 168.812,262.014 173.145,260.514 177.5,259C 179.07,257.603 180.404,256.103 181.5,254.5 Z"/></g>
<g><path style="opacity:0.949" fill="#b74c3e" d="M 162.5,266.5 C 164.337,266.639 164.67,267.306 163.5,268.5C 162.702,268.043 162.369,267.376 162.5,266.5 Z"/></g>
<g><path style="opacity:0.008" fill="#000920" d="M 175.5,266.5 C 176.833,267.167 176.833,267.167 175.5,266.5 Z"/></g>
<g><path style="opacity:0.765" fill="#503c48" d="M 70.5,250.5 C 76.1667,250.5 81.8333,250.5 87.5,250.5C 83.0181,251.326 78.3514,251.826 73.5,252C 76.8333,252.333 80.1667,252.667 83.5,253C 82.2617,253.69 82.2617,254.19 83.5,254.5C 81.0767,256.757 79.2433,259.424 78,262.5C 77.1487,265.053 77.482,267.386 79,269.5C 83.374,265.621 87.874,261.954 92.5,258.5C 92.8333,258.5 93.1667,258.5 93.5,258.5C 93.8333,259.167 94.1667,259.833 94.5,260.5C 88.3517,264.431 82.685,269.098 77.5,274.5C 76.914,274.291 76.414,273.957 76,273.5C 75.3333,269.167 75.3333,264.833 76,260.5C 76.8834,257.898 78.3834,255.731 80.5,254C 77.3154,254.662 74.3154,254.162 71.5,252.5C 71.1667,251.833 70.8333,251.167 70.5,250.5 Z"/></g>
<g><path style="opacity:0.129" fill="#56474d" d="M 191.5,254.5 C 191.181,259.363 191.514,264.03 192.5,268.5C 192.369,269.376 192.702,270.043 193.5,270.5C 196.932,267.12 200.932,264.787 205.5,263.5C 206.5,263.5 207.5,263.5 208.5,263.5C 202.59,266.391 197.423,270.391 193,275.5C 191.249,273.51 190.249,271.177 190,268.5C 189.734,264.026 189.567,259.693 189.5,255.5C 190.167,255.167 190.833,254.833 191.5,254.5 Z"/></g>
<g><path style="opacity:0.996" fill="#c77237" d="M 136.5,279.5 C 134.186,281.477 131.853,283.477 129.5,285.5C 128.359,283.579 128.192,281.579 129,279.5C 133.348,275.468 135.515,270.468 135.5,264.5C 136.521,268.088 136.854,273.088 136.5,279.5 Z"/></g>
<g><path style="opacity:0.937" fill="#955f34" d="M 179.5,271.5 C 180.586,271.62 181.253,272.287 181.5,273.5C 181.167,274.167 180.833,274.833 180.5,275.5C 179.571,274.311 179.238,272.978 179.5,271.5 Z"/></g>
<g><path style="opacity:0.953" fill="#9b603b" d="M 169.5,274.5 C 170.586,274.62 171.253,275.287 171.5,276.5C 171.167,277.167 170.833,277.833 170.5,278.5C 169.571,277.311 169.238,275.978 169.5,274.5 Z"/></g>
<g><path style="opacity:0.217" fill="#3d2b2c" d="M 134.5,261.5 C 134.263,262.791 134.596,263.791 135.5,264.5C 135.515,270.468 133.348,275.468 129,279.5C 128.192,281.579 128.359,283.579 129.5,285.5C 131.853,283.477 134.186,281.477 136.5,279.5C 136.833,280.167 137.167,280.833 137.5,281.5C 134.957,284.78 131.957,287.613 128.5,290C 127.256,290.456 126.423,289.956 126,288.5C 125.454,285.101 125.787,281.768 127,278.5C 129.899,275.369 131.732,271.702 132.5,267.5C 133.048,265.374 133.715,263.374 134.5,261.5 Z"/></g>
</svg>
